<?xml version="1.0" standalone="no"?><svg xmlns="http://www.w3.org/2000/svg" viewBox="0 0 1440 320"><path fill="#2C97CE" fill-opacity="1" d="M0,64L34.3,85.3C68.6,107,137,149,206,186.7C274.3,224,343,256,411,245.3C480,235,549,181,617,165.3C685.7,149,754,171,823,192C891.4,213,960,235,1029,229.3C1097.1,224,1166,192,1234,181.3C1302.9,171,1371,181,1406,186.7L1440,192L1440,320L1405.7,320C1371.4,320,1303,320,1234,320C1165.7,320,1097,320,1029,320C960,320,891,320,823,320C754.3,320,686,320,617,320C548.6,320,480,320,411,320C342.9,320,274,320,206,320C137.1,320,69,320,34,320L0,320Z"></path></svg>